<svg width="193" height="64" viewBox="0 0 193 64" fill="none" xmlns="http://www.w3.org/2000/svg">
<path d="M7.08 15.16C11.48 15.16 12.2 10.76 12.2 10.76H9.64C9.64 10.76 9.24 12.68 7.08 12.68C5.48 12.68 4.2 11.4 4.2 9.4C4.2 7.4 5.48 6.12 7.08 6.12C9.16 6.12 9.64 7.96 9.64 7.96H12.2C12.2 7.96 11.4 3.64 7.08 3.64C4.04 3.64 1.64 6.04 1.64 9.4C1.64 12.76 4.04 15.16 7.08 15.16ZM17.4875 15.16C19.9675 15.16 21.7275 13.4 21.7275 10.92C21.7275 8.44 19.9675 6.68 17.4875 6.68C15.0075 6.68 13.2475 8.44 13.2475 10.92C13.2475 13.4 15.0075 15.16 17.4875 15.16ZM17.4875 12.92C16.4475 12.92 15.6475 12.12 15.6475 10.92C15.6475 9.72 16.4475 8.92 17.4875 8.92C18.5275 8.92 19.3275 9.72 19.3275 10.92C19.3275 12.12 18.5275 12.92 17.4875 12.92ZM29.4813 16.92H31.8813V12.76H30.7613V6.84H28.3613V12.76H25.6413V6.84H23.2413V15H29.4813V16.92ZM33.085 15H35.965L38.045 10.76H38.365V15H40.765V6.84H37.885L35.805 11.08H35.485V6.84H33.085V15ZM45.3188 15.16C46.8388 15.16 47.5588 14.28 47.5588 14.28H47.6388L47.7988 15H49.8788V9.784C49.8788 7.96 48.5988 6.68 46.1988 6.68C43.9588 6.68 42.7588 7.88 42.5988 9.32H44.9188C44.9188 9.32 45.1588 8.6 46.1988 8.6C46.9988 8.6 47.4788 9.08 47.4788 9.8V9.96H45.6388C43.3988 9.96 42.2788 11.08 42.2788 12.6C42.2788 14.04 43.3988 15.16 45.3188 15.16ZM45.7988 13.32C45.0788 13.32 44.6788 12.92 44.6788 12.44C44.6788 11.96 45.0788 11.56 45.9588 11.56H47.4788V11.72C47.4788 12.68 46.8388 13.32 45.7988 13.32ZM50.8456 15.08H51.5656C53.4056 15.08 54.4456 14.04 54.6056 12.04L54.8456 9.08H56.6856V15H59.0856V6.84H52.6856L52.2856 11.72C52.2216 12.52 51.8856 12.84 51.1656 12.84H50.8456V15.08ZM61.0069 15H65.3269C67.0869 15 68.2869 13.8 68.2869 12.12C68.2869 10.44 67.0869 9.24 65.3269 9.24H63.4069V6.84H61.0069V15ZM63.4069 13.08V11.16H64.8469C65.4869 11.16 65.8869 11.56 65.8869 12.12C65.8869 12.68 65.4869 13.08 64.8469 13.08H63.4069ZM69.6475 15H72.0475V12.04H74.7675V15H77.1675V6.84H74.7675V9.8H72.0475V6.84H69.6475V15ZM79.085 15H83.165C84.925 15 86.125 13.8 86.125 12.12C86.125 10.44 84.925 9.24 83.165 9.24H81.485V6.84H79.085V15ZM81.485 13.08V11.16H82.685C83.325 11.16 83.725 11.56 83.725 12.12C83.725 12.68 83.325 13.08 82.685 13.08H81.485ZM87.005 15H89.405V6.84H87.005V15ZM95.1594 15.16C98.1994 15.16 99.0794 12.52 99.0794 12.52H96.6794C96.6794 12.52 96.1994 13.24 95.1594 13.24C94.1194 13.24 93.3994 12.52 93.3194 11.56H99.2394C99.2394 11.56 99.3194 11.32 99.3194 10.76C99.3194 8.44 97.5594 6.68 95.1594 6.68C92.6794 6.68 90.9194 8.44 90.9194 10.92C90.9194 13.4 92.6794 15.16 95.1594 15.16ZM93.3194 10.12C93.5594 9.08 94.1994 8.52 95.1594 8.52C96.1194 8.52 96.7594 9.08 96.9994 10.12H93.3194ZM108.988 15.16C112.588 15.16 113.068 11.8 113.068 11.8H110.588C110.588 11.8 110.268 12.92 108.988 12.92C107.948 12.92 107.148 12.12 107.148 10.92C107.148 9.72 107.948 8.92 108.988 8.92C110.268 8.92 110.588 10.04 110.588 10.04H113.068C113.068 10.04 112.588 6.68 108.988 6.68C106.508 6.68 104.748 8.44 104.748 10.92C104.748 13.4 106.508 15.16 108.988 15.16ZM118.347 15.16C121.387 15.16 122.267 12.52 122.267 12.52H119.867C119.867 12.52 119.387 13.24 118.347 13.24C117.307 13.24 116.587 12.52 116.507 11.56H122.427C122.427 11.56 122.507 11.32 122.507 10.76C122.507 8.44 120.747 6.68 118.347 6.68C115.867 6.68 114.107 8.44 114.107 10.92C114.107 13.4 115.867 15.16 118.347 15.16ZM116.507 10.12C116.747 9.08 117.387 8.52 118.347 8.52C119.307 8.52 119.947 9.08 120.187 10.12H116.507ZM125.55 15H127.95V9.08H130.43V6.84H123.07V9.08H125.55V15ZM131.71 15H134.59L136.67 10.76H136.99V15H139.39V6.84H136.51L134.43 11.08H134.11V6.84H131.71V15Z" fill="white"/>
<g clip-path="url(#clip0_0_100)">
<path fill-rule="evenodd" clip-rule="evenodd" d="M7.13701 61.993H3.04601V52.499H1.00101V49.226H3.04601V47.262C3.04601 44.593 4.20101 43.004 7.47901 43.004H10.209V46.277H8.50401C7.22601 46.277 7.14201 46.735 7.14201 47.589L7.13701 49.226H10.229L9.86701 52.499H7.13701V61.993Z" fill="white"/>
</g>
<g clip-path="url(#clip1_0_100)">
<path fill-rule="evenodd" clip-rule="evenodd" d="M72.008 47.896C71.235 48.218 70.404 48.433 69.533 48.531C70.423 48.031 71.106 47.239 71.428 46.297C70.594 46.759 69.672 47.095 68.69 47.277C67.905 46.491 66.784 46.001 65.545 46.001C63.165 46.001 61.234 47.81 61.234 50.04C61.234 50.357 61.272 50.666 61.346 50.961C57.764 50.792 54.588 49.184 52.462 46.741C52.091 47.338 51.879 48.031 51.879 48.772C51.879 50.172 52.64 51.41 53.796 52.134C53.09 52.112 52.426 51.931 51.844 51.628C51.844 51.646 51.844 51.661 51.844 51.68C51.844 53.637 53.329 55.269 55.301 55.64C54.94 55.732 54.558 55.78 54.166 55.78C53.888 55.78 53.618 55.756 53.355 55.71C53.903 57.313 55.495 58.482 57.381 58.515C55.906 59.598 54.048 60.243 52.028 60.243C51.68 60.243 51.337 60.224 51 60.187C52.907 61.332 55.173 62.002 57.607 62.002C65.535 62.002 69.87 55.846 69.87 50.509C69.87 50.333 69.865 50.16 69.857 49.986C70.699 49.416 71.43 48.705 72.008 47.896Z" fill="white"/>
</g>
<g clip-path="url(#clip2_0_100)">
<path fill-rule="evenodd" clip-rule="evenodd" d="M131.512 63.013H114.488C113.672 63.013 113.011 62.434 113.011 61.72V46.282C113.011 45.569 113.672 44.99 114.488 44.99H131.512C132.327 44.99 132.988 45.569 132.988 46.282V61.72C132.988 62.434 132.327 63.013 131.512 63.013ZM116.473 60.044H119.415V51.907H116.473V60.044ZM117.964 47.985C116.957 47.985 116.3 48.592 116.3 49.391C116.3 50.171 116.938 50.797 117.925 50.797H117.944C118.97 50.797 119.608 50.171 119.608 49.391C119.59 48.592 118.97 47.985 117.964 47.985ZM130.023 55.379C130.023 52.879 128.571 51.716 126.636 51.716C125.074 51.716 124.376 52.505 123.985 53.06V51.907H121.043C121.082 52.671 121.043 60.044 121.043 60.044H123.985V55.5C123.985 55.258 124.004 55.014 124.082 54.841C124.294 54.355 124.779 53.852 125.591 53.852C126.656 53.852 127.081 54.598 127.081 55.692V60.044H130.023V55.379ZM123.965 53.087C123.971 53.078 123.979 53.069 123.985 53.06V53.087H123.965Z" fill="white"/>
</g>
<g clip-path="url(#clip3_0_100)">
<path fill-rule="evenodd" clip-rule="evenodd" d="M180.424 45C175.489 45 173.001 48.522 173.001 51.46C173.001 53.238 173.677 54.82 175.128 55.41C175.366 55.507 175.579 55.413 175.648 55.151C175.696 54.97 175.81 54.512 175.86 54.321C175.93 54.062 175.903 53.971 175.711 53.745C175.292 53.254 175.025 52.618 175.025 51.717C175.025 49.104 176.989 46.765 180.139 46.765C182.928 46.765 184.46 48.462 184.46 50.727C184.46 53.709 183.135 56.225 181.167 56.225C180.081 56.225 179.268 55.33 179.528 54.233C179.841 52.924 180.445 51.51 180.445 50.564C180.445 49.718 179.989 49.012 179.044 49.012C177.934 49.012 177.042 50.156 177.042 51.688C177.042 52.665 177.373 53.325 177.373 53.325C177.373 53.325 176.236 58.119 176.037 58.959C175.64 60.631 175.978 62.681 176.006 62.889C176.023 63.011 176.181 63.04 176.253 62.948C176.355 62.814 177.678 61.189 178.128 59.564C178.255 59.104 178.858 56.722 178.858 56.722C179.219 57.407 180.274 58.011 181.395 58.011C184.734 58.011 186.999 54.98 186.999 50.924C186.999 47.857 184.39 45 180.424 45Z" fill="white"/>
</g>
<defs>
<clipPath id="clip0_0_100">
<rect width="10" height="19" fill="white" transform="translate(1 43)"/>
</clipPath>
<clipPath id="clip1_0_100">
<rect width="22" height="17" fill="white" transform="translate(51 46)"/>
</clipPath>
<clipPath id="clip2_0_100">
<rect width="20" height="20" fill="white" transform="translate(113 44)"/>
</clipPath>
<clipPath id="clip3_0_100">
<rect width="14" height="19" fill="white" transform="translate(173 45)"/>
</clipPath>
</defs>
</svg>
